<svg version="1.1" xmlns="http://www.w3.org/2000/svg" xmlns:xlink="http://www.w3.org/1999/xlink" width="1263.5205078125" height="937"><defs/><g><g transform="translate(-150,-294) scale(1,1)"><rect fill="#C0C0C0" stroke="none" x="863" y="311" width="50.919921875" height="44" opacity="0.2"/></g><g transform="translate(-150,-294) scale(1,1)"><rect fill="#ffffff" stroke="none" x="856" y="304" width="50.919921875" height="44"/></g><g transform="translate(-150,-294) scale(1,1)"><path fill="none" stroke="#000000" d="M 856 304 L 906.919921875 304 L 906.919921875 348 L 856 348 L 856 304 Z Z" stroke-miterlimit="10"/></g><g transform="translate(-150,-294) scale(1,1)"><path fill="none" stroke="#000000" d="M 856 329 L 906.919921875 329" stroke-miterlimit="10"/></g><g transform="translate(-150,-294) scale(1,1)"><path fill="none" stroke="#000000" d="M 856 339 L 906.919921875 339" stroke-miterlimit="10"/></g><g transform="translate(-150,-294) scale(1,1)"><g><path fill="none" stroke="none"/><text fill="#000000" stroke="none" font-family="Arial" font-size="13px" font-style="normal" font-weight="bold" text-decoration="none" x="867.371337890625" y="323.5">Main</text></g></g><g transform="translate(-150,-294) scale(1,1)"><rect fill="#C0C0C0" stroke="none" x="1063" y="359" width="347.5205078125" height="100" opacity="0.2"/></g><g transform="translate(-150,-294) scale(1,1)"><rect fill="#ffffff" stroke="none" x="1056" y="352" width="347.5205078125" height="100"/></g><g transform="translate(-150,-294) scale(1,1)"><path fill="none" stroke="#000000" d="M 1056 352 L 1403.5205078125 352 L 1403.5205078125 452 L 1056 452 L 1056 352 Z Z" stroke-miterlimit="10"/></g><g transform="translate(-150,-294) scale(1,1)"><path fill="none" stroke="#000000" d="M 1056 377 L 1403.5205078125 377" stroke-miterlimit="10"/></g><g transform="translate(-150,-294) scale(1,1)"><path fill="none" stroke="#000000" d="M 1056 400 L 1403.5205078125 400" stroke-miterlimit="10"/></g><g transform="translate(-150,-294) scale(1,1)"><g><path fill="none" stroke="none"/><text fill="#000000" stroke="none" font-family="Arial" font-size="13px" font-style="normal" font-weight="bold" text-decoration="none" x="1198.697998046875" y="371.5">VirtualDisk</text></g></g><g transform="translate(-150,-294) scale(1,1)"><g><path fill="none" stroke="none"/><text fill="#000000" stroke="none" font-family="Arial" font-size="13px" font-style="normal" font-weight="normal" text-decoration="none" x="1061" y="394.5">-driveData: byte[*]</text></g></g><g transform="translate(-150,-294) scale(1,1)"><g><path fill="none" stroke="none"/><text fill="#000000" stroke="none" font-family="Arial" font-size="13px" font-style="normal" font-weight="normal" text-decoration="none" x="1061" y="417.5">+VirtualDisk()</text><path fill="none" stroke="#000000" d="M 1061 417.5 L 1139.37451171875 417.5" stroke-miterlimit="10"/></g></g><g transform="translate(-150,-294) scale(1,1)"><g><path fill="none" stroke="none"/><text fill="#000000" stroke="none" font-family="Arial" font-size="13px" font-style="normal" font-weight="normal" text-decoration="none" x="1061" y="432.5">+writeBlock(block: unsigned short, blockData: byte[*]): void</text></g></g><g transform="translate(-150,-294) scale(1,1)"><g><path fill="none" stroke="none"/><text fill="#000000" stroke="none" font-family="Arial" font-size="13px" font-style="normal" font-weight="normal" text-decoration="none" x="1061" y="447.5">+readBlock(block: unsigned short): byte[*]</text></g></g><g transform="translate(-150,-294) scale(1,1)"><rect fill="#C0C0C0" stroke="none" x="631" y="471" width="447.9912109375" height="310" opacity="0.2"/></g><g transform="translate(-150,-294) scale(1,1)"><rect fill="#ffffff" stroke="none" x="624" y="464" width="447.9912109375" height="310"/></g><g transform="translate(-150,-294) scale(1,1)"><path fill="none" stroke="#000000" d="M 624 464 L 1071.9912109375 464 L 1071.9912109375 774 L 624 774 L 624 464 Z Z" stroke-miterlimit="10"/></g><g transform="translate(-150,-294) scale(1,1)"><path fill="none" stroke="#000000" d="M 624 489 L 1071.9912109375 489" stroke-miterlimit="10"/></g><g transform="translate(-150,-294) scale(1,1)"><path fill="none" stroke="#000000" d="M 624 512 L 1071.9912109375 512" stroke-miterlimit="10"/></g><g transform="translate(-150,-294) scale(1,1)"><g><path fill="none" stroke="none"/><text fill="#000000" stroke="none" font-family="Arial" font-size="13px" font-style="normal" font-weight="bold" text-decoration="none" x="815.85107421875" y="483.5">FileSystem</text></g></g><g transform="translate(-150,-294) scale(1,1)"><g><path fill="none" stroke="none"/><text fill="#000000" stroke="none" font-family="Arial" font-size="13px" font-style="normal" font-weight="normal" text-decoration="none" x="629" y="506.5">+Disk: VirtualDisk</text></g></g><g transform="translate(-150,-294) scale(1,1)"><g><path fill="none" stroke="none"/><text fill="#000000" stroke="none" font-family="Arial" font-size="13px" font-style="normal" font-weight="normal" text-decoration="none" x="629" y="529.5">+FileSystem(disk: VirtualDisk)</text><path fill="none" stroke="#000000" d="M 629 529.5 L 802.00537109375 529.5" stroke-miterlimit="10"/></g></g><g transform="translate(-150,-294) scale(1,1)"><g><path fill="none" stroke="none"/><text fill="#000000" stroke="none" font-family="Arial" font-size="13px" font-style="normal" font-weight="normal" text-decoration="none" x="629" y="544.5">+getRoot(): DirectoryTable</text></g></g><g transform="translate(-150,-294) scale(1,1)"><g><path fill="none" stroke="none"/><text fill="#000000" stroke="none" font-family="Arial" font-size="13px" font-style="normal" font-weight="normal" text-decoration="none" x="629" y="559.5">+getDirectoryContents(path: string): DirectoryTable</text></g></g><g transform="translate(-150,-294) scale(1,1)"><g><path fill="none" stroke="none"/><text fill="#000000" stroke="none" font-family="Arial" font-size="13px" font-style="normal" font-weight="normal" text-decoration="none" x="629" y="574.5">+getFile(): void</text></g></g><g transform="translate(-150,-294) scale(1,1)"><g><path fill="none" stroke="none"/><text fill="#000000" stroke="none" font-family="Arial" font-size="13px" font-style="normal" font-weight="normal" text-decoration="none" x="629" y="589.5">+createDirectory(name: string, path: location): void</text></g></g><g transform="translate(-150,-294) scale(1,1)"><g><path fill="none" stroke="none"/><text fill="#000000" stroke="none" font-family="Arial" font-size="13px" font-style="normal" font-weight="normal" text-decoration="none" x="629" y="604.5">+createFile(path: string, file: File): void</text></g></g><g transform="translate(-150,-294) scale(1,1)"><g><path fill="none" stroke="none"/><text fill="#000000" stroke="none" font-family="Arial" font-size="13px" font-style="normal" font-weight="normal" text-decoration="none" x="629" y="619.5">+getFreeBlocks(): boolean</text></g></g><g transform="translate(-150,-294) scale(1,1)"><g><path fill="none" stroke="none"/><text fill="#000000" stroke="none" font-family="Arial" font-size="13px" font-style="normal" font-weight="normal" text-decoration="none" x="629" y="634.5">+parseTableAtBlock(block: unsigned short): DirectoryTable</text></g></g><g transform="translate(-150,-294) scale(1,1)"><g><path fill="none" stroke="none"/><text fill="#000000" stroke="none" font-family="Arial" font-size="13px" font-style="normal" font-weight="normal" text-decoration="none" x="629" y="649.5">+sortTableEntries(entries: List&lt;DirectoryRow&gt;): List&lt;DirectoryRow&gt;</text></g></g><g transform="translate(-150,-294) scale(1,1)"><g><path fill="none" stroke="none"/><text fill="#000000" stroke="none" font-family="Arial" font-size="13px" font-style="normal" font-weight="normal" text-decoration="none" x="629" y="664.5">+collapseBlockSeparatedList(list: List&lt;byte[*]): byte[*]</text></g></g><g transform="translate(-150,-294) scale(1,1)"><g><path fill="none" stroke="none"/><text fill="#000000" stroke="none" font-family="Arial" font-size="13px" font-style="normal" font-weight="normal" text-decoration="none" x="629" y="679.5">+getSuperParentFromPath(path: string): DirectoryTable</text></g></g><g transform="translate(-150,-294) scale(1,1)"><g><path fill="none" stroke="none"/><text fill="#000000" stroke="none" font-family="Arial" font-size="13px" font-style="normal" font-weight="normal" text-decoration="none" x="629" y="694.5">+getParentFromPath(path: string): DirectoryTable</text></g></g><g transform="translate(-150,-294) scale(1,1)"><g><path fill="none" stroke="none"/><text fill="#000000" stroke="none" font-family="Arial" font-size="13px" font-style="normal" font-weight="normal" text-decoration="none" x="629" y="709.5">+findContiguousFreeBlocks(n: unsigned short, freeBlocks: bool[*]): tuple</text></g></g><g transform="translate(-150,-294) scale(1,1)"><g><path fill="none" stroke="none"/><text fill="#000000" stroke="none" font-family="Arial" font-size="13px" font-style="normal" font-weight="normal" text-decoration="none" x="629" y="724.5">+findNonContiguousFreeBlocks(n: unsigned short, freeBlocks: bool[*]): tuple</text></g></g><g transform="translate(-150,-294) scale(1,1)"><g><path fill="none" stroke="none"/><text fill="#000000" stroke="none" font-family="Arial" font-size="13px" font-style="normal" font-weight="normal" text-decoration="none" x="629" y="739.5">+findFirstFreeBlock(): unsigned short</text></g></g><g transform="translate(-150,-294) scale(1,1)"><g><path fill="none" stroke="none"/><text fill="#000000" stroke="none" font-family="Arial" font-size="13px" font-style="normal" font-weight="normal" text-decoration="none" x="629" y="754.5">+deleteObject(filepath: string): void</text></g></g><g transform="translate(-150,-294) scale(1,1)"><g><path fill="none" stroke="none"/><text fill="#000000" stroke="none" font-family="Arial" font-size="13px" font-style="normal" font-weight="normal" text-decoration="none" x="629" y="769.5">+renameObject(filepath: string, newName: string): void</text></g></g><g transform="translate(-150,-294) scale(1,1)"><rect fill="#C0C0C0" stroke="none" x="711" y="815" width="285.3515625" height="160" opacity="0.2"/></g><g transform="translate(-150,-294) scale(1,1)"><rect fill="#ffffff" stroke="none" x="704" y="808" width="285.3515625" height="160"/></g><g transform="translate(-150,-294) scale(1,1)"><path fill="none" stroke="#000000" d="M 704 808 L 989.3515625 808 L 989.3515625 968 L 704 968 L 704 808 Z Z" stroke-miterlimit="10"/></g><g transform="translate(-150,-294) scale(1,1)"><path fill="none" stroke="#000000" d="M 704 833 L 989.3515625 833" stroke-miterlimit="10"/></g><g transform="translate(-150,-294) scale(1,1)"><path fill="none" stroke="#000000" d="M 704 856 L 989.3515625 856" stroke-miterlimit="10"/></g><g transform="translate(-150,-294) scale(1,1)"><g><path fill="none" stroke="none"/><text fill="#000000" stroke="none" font-family="Arial" font-size="13px" font-style="normal" font-weight="bold" text-decoration="none" x="804.4130859375" y="827.5">DirectoryTable</text></g></g><g transform="translate(-150,-294) scale(1,1)"><g><path fill="none" stroke="none"/><text fill="#000000" stroke="none" font-family="Arial" font-size="13px" font-style="normal" font-weight="normal" text-decoration="none" x="709" y="850.5">+rows: ArrayList&lt;DirectoryRow&gt;</text></g></g><g transform="translate(-150,-294) scale(1,1)"><g><path fill="none" stroke="none"/><text fill="#000000" stroke="none" font-family="Arial" font-size="13px" font-style="normal" font-weight="normal" text-decoration="none" x="709" y="873.5">+DirectoryTable()</text><path fill="none" stroke="#000000" d="M 709 873.5 L 809.775390625 873.5" stroke-miterlimit="10"/></g></g><g transform="translate(-150,-294) scale(1,1)"><g><path fill="none" stroke="none"/><text fill="#000000" stroke="none" font-family="Arial" font-size="13px" font-style="normal" font-weight="normal" text-decoration="none" x="709" y="888.5">+createFromBytes(data: byte[*]): DirectoryTable</text><path fill="none" stroke="#000000" d="M 709 888.5 L 985.3515625 888.5" stroke-miterlimit="10"/></g></g><g transform="translate(-150,-294) scale(1,1)"><g><path fill="none" stroke="none"/><text fill="#000000" stroke="none" font-family="Arial" font-size="13px" font-style="normal" font-weight="normal" text-decoration="none" x="709" y="903.5">+toBytes(): byte[*]</text></g></g><g transform="translate(-150,-294) scale(1,1)"><g><path fill="none" stroke="none"/><text fill="#000000" stroke="none" font-family="Arial" font-size="13px" font-style="normal" font-weight="normal" text-decoration="none" x="709" y="918.5">+getRow(i: byte): DirectoryRow</text></g></g><g transform="translate(-150,-294) scale(1,1)"><g><path fill="none" stroke="none"/><text fill="#000000" stroke="none" font-family="Arial" font-size="13px" font-style="normal" font-weight="normal" text-decoration="none" x="709" y="933.5">+insertRow(row: DirectoryRow): void</text></g></g><g transform="translate(-150,-294) scale(1,1)"><g><path fill="none" stroke="none"/><text fill="#000000" stroke="none" font-family="Arial" font-size="13px" font-style="normal" font-weight="normal" text-decoration="none" x="709" y="948.5">+deleteRow(row: DirectoryRow): void</text></g></g><g transform="translate(-150,-294) scale(1,1)"><rect fill="#C0C0C0" stroke="none" x="1135" y="831" width="216.00341796875" height="115" opacity="0.2"/></g><g transform="translate(-150,-294) scale(1,1)"><rect fill="#ffffff" stroke="none" x="1128" y="824" width="216.00341796875" height="115"/></g><g transform="translate(-150,-294) scale(1,1)"><path fill="none" stroke="#000000" d="M 1128 824 L 1344.00341796875 824 L 1344.00341796875 939 L 1128 939 L 1128 824 Z Z" stroke-miterlimit="10"/></g><g transform="translate(-150,-294) scale(1,1)"><path fill="none" stroke="#000000" d="M 1128 849 L 1344.00341796875 849" stroke-miterlimit="10"/></g><g transform="translate(-150,-294) scale(1,1)"><path fill="none" stroke="#000000" d="M 1128 917 L 1344.00341796875 917" stroke-miterlimit="10"/></g><g transform="translate(-150,-294) scale(1,1)"><g><path fill="none" stroke="none"/><text fill="#000000" stroke="none" font-family="Arial" font-size="13px" font-style="normal" font-weight="bold" text-decoration="none" x="1225.528076171875" y="843.5">File</text></g></g><g transform="translate(-150,-294) scale(1,1)"><g><path fill="none" stroke="none"/><text fill="#000000" stroke="none" font-family="Arial" font-size="13px" font-style="normal" font-weight="normal" text-decoration="none" x="1133" y="866.5">+Filename: string</text></g></g><g transform="translate(-150,-294) scale(1,1)"><g><path fill="none" stroke="none"/><text fill="#000000" stroke="none" font-family="Arial" font-size="13px" font-style="normal" font-weight="normal" text-decoration="none" x="1133" y="881.5">+FileData: byte[*]</text></g></g><g transform="translate(-150,-294) scale(1,1)"><g><path fill="none" stroke="none"/><text fill="#000000" stroke="none" font-family="Arial" font-size="13px" font-style="normal" font-weight="normal" text-decoration="none" x="1133" y="896.5">+Filesize: unsigned short</text></g></g><g transform="translate(-150,-294) scale(1,1)"><g><path fill="none" stroke="none"/><text fill="#000000" stroke="none" font-family="Arial" font-size="13px" font-style="normal" font-weight="normal" text-decoration="none" x="1133" y="911.5">+RequiredBlocks: unsigned short</text></g></g><g transform="translate(-150,-294) scale(1,1)"><g><path fill="none" stroke="none"/><text fill="#000000" stroke="none" font-family="Arial" font-size="13px" font-style="normal" font-weight="normal" text-decoration="none" x="1133" y="934.5">+File(filenamein: string, data: string)</text><path fill="none" stroke="#000000" d="M 1133 934.5 L 1340.00341796875 934.5" stroke-miterlimit="10"/></g></g><g transform="translate(-150,-294) scale(1,1)"><rect fill="#C0C0C0" stroke="none" x="551" y="1023" width="600" height="205" opacity="0.2"/></g><g transform="translate(-150,-294) scale(1,1)"><rect fill="#ffffff" stroke="none" x="544" y="1016" width="600" height="205"/></g><g transform="translate(-150,-294) scale(1,1)"><path fill="none" stroke="#000000" d="M 544 1016 L 1144 1016 L 1144 1221 L 544 1221 L 544 1016 Z Z" stroke-miterlimit="10"/></g><g transform="translate(-150,-294) scale(1,1)"><path fill="none" stroke="#000000" d="M 544 1041 L 1144 1041" stroke-miterlimit="10"/></g><g transform="translate(-150,-294) scale(1,1)"><path fill="none" stroke="#000000" d="M 544 1139 L 1144 1139" stroke-miterlimit="10"/></g><g transform="translate(-150,-294) scale(1,1)"><g><path fill="none" stroke="none"/><text fill="#000000" stroke="none" font-family="Arial" font-size="13px" font-style="normal" font-weight="bold" text-decoration="none" x="804.99365234375" y="1035.5">DirectoryRow</text></g></g><g transform="translate(-150,-294) scale(1,1)"><g><path fill="none" stroke="none"/><text fill="#000000" stroke="none" font-family="Arial" font-size="13px" font-style="normal" font-weight="normal" text-decoration="none" x="549" y="1058.5">+itemName: String 58 bytes</text></g></g><g transform="translate(-150,-294) scale(1,1)"><g><path fill="none" stroke="none"/><text fill="#000000" stroke="none" font-family="Arial" font-size="13px" font-style="normal" font-weight="normal" text-decoration="none" x="549" y="1073.5">+blockStart: unsigned short</text></g></g><g transform="translate(-150,-294) scale(1,1)"><g><path fill="none" stroke="none"/><text fill="#000000" stroke="none" font-family="Arial" font-size="13px" font-style="normal" font-weight="normal" text-decoration="none" x="549" y="1088.5">+size: unsigned short</text></g></g><g transform="translate(-150,-294) scale(1,1)"><g><path fill="none" stroke="none"/><text fill="#000000" stroke="none" font-family="Arial" font-size="13px" font-style="normal" font-weight="normal" text-decoration="none" x="549" y="1103.5">+next: unsigned short</text></g></g><g transform="translate(-150,-294) scale(1,1)"><g><path fill="none" stroke="none"/><text fill="#000000" stroke="none" font-family="Arial" font-size="13px" font-style="normal" font-weight="normal" text-decoration="none" x="549" y="1118.5">+IsFile: boolean</text></g></g><g transform="translate(-150,-294) scale(1,1)"><g><path fill="none" stroke="none"/><text fill="#000000" stroke="none" font-family="Arial" font-size="13px" font-style="normal" font-weight="normal" text-decoration="none" x="549" y="1133.5">+ReferencedBlockCount: unsigned short</text></g></g><g transform="translate(-150,-294) scale(1,1)"><g><path fill="none" stroke="none"/><text fill="#000000" stroke="none" font-family="Arial" font-size="13px" font-style="normal" font-weight="normal" text-decoration="none" x="549" y="1156.5">+DirectoryRow(name: string, blockStart: unsigned short, size: unsigned short, next: unsigned short)</text><path fill="none" stroke="#000000" d="M 549 1156.5 L 1119.47021484375 1156.5" stroke-miterlimit="10"/></g></g><g transform="translate(-150,-294) scale(1,1)"><g><path fill="none" stroke="none"/><text fill="#000000" stroke="none" font-family="Arial" font-size="13px" font-style="normal" font-weight="normal" text-decoration="none" x="549" y="1171.5">+createFromBytes(row: byte[*]): DirectoryRow</text><path fill="none" stroke="#000000" d="M 549 1171.5 L 814.484375 1171.5" stroke-miterlimit="10"/></g></g><g transform="translate(-150,-294) scale(1,1)"><g><path fill="none" stroke="none"/><text fill="#000000" stroke="none" font-family="Arial" font-size="13px" font-style="normal" font-weight="normal" text-decoration="none" x="549" y="1186.5">+toBytes(): byte[*]</text></g></g><g transform="translate(-150,-294) scale(1,1)"><g><path fill="none" stroke="none"/><text fill="#000000" stroke="none" font-family="Arial" font-size="13px" font-style="normal" font-weight="normal" text-decoration="none" x="549" y="1201.5">+getString(): string</text></g></g><g transform="translate(-150,-294) scale(1,1)"><g><path fill="none" stroke="none"/><text fill="#000000" stroke="none" font-family="Arial" font-size="13px" font-style="normal" font-weight="normal" text-decoration="none" x="549" y="1216.5">+setString(n: string): void</text></g></g><g transform="translate(-150,-294) scale(1,1)"><path fill="none" stroke="#000000" d="M 845 969 L 845 1015" stroke-miterlimit="10"/></g><g transform="translate(-150,-294) scale(1,1)"><path fill="none" stroke="#000000" d="M 840.790482243984 1004.8373251423759 L 845 1015 L 849.209517756016 1004.8373251423759" stroke-miterlimit="10"/></g><g transform="translate(-150,-294) scale(1,1)"><path fill="none" stroke="#000000" d="M 846 775 L 846 807" stroke-miterlimit="10"/></g><g transform="translate(-150,-294) scale(1,1)"><path fill="none" stroke="#000000" d="M 841.790482243984 796.8373251423759 L 846 807 L 850.209517756016 796.8373251423759" stroke-miterlimit="10"/></g><g transform="translate(-150,-294) scale(1,1)"><path fill="none" stroke="#000000" d="M 1073 771 L 1150 823" stroke-miterlimit="10"/></g><g transform="translate(-150,-294) scale(1,1)"><path fill="none" stroke="#000000" d="M 1139.2220596647117 820.8009087947597 L 1150 823 L 1143.9338376053668 813.8238529980205" stroke-miterlimit="10"/></g><g transform="translate(-150,-294) scale(1,1)"><path fill="none" stroke="#000000" d="M 908 332 L 1055 364" stroke-miterlimit="10"/></g><g transform="translate(-150,-294) scale(1,1)"><path fill="none" stroke="#000000" d="M 1044.1744964193342 365.9515307389309 L 1055 364 L 1045.96527238916 357.725153627544" stroke-miterlimit="10"/></g><g transform="translate(-150,-294) scale(1,1)"><path fill="none" stroke="#000000" d="M 878 349 L 865 463" stroke-miterlimit="10"/></g><g transform="translate(-150,-294) scale(1,1)"><path fill="none" stroke="#000000" d="M 861.9690274924503 452.4258236416032 L 865 463 L 870.3338505948064 453.3797069778368" stroke-miterlimit="10"/></g><g transform="translate(-150,-294) scale(1,1)"><path fill="none" stroke="#000000" d="M 1073 491 L 1139 453" stroke-miterlimit="10"/></g><g transform="translate(-150,-294) scale(1,1)"><path fill="none" stroke="#000000" d="M 1132.2931974367605 461.71887603867174 L 1139 453 L 1128.0923980561843 454.4227507987237" stroke-miterlimit="10"/></g><g transform="translate(-150,-294) scale(1,1)"><rect fill="#C0C0C0" stroke="none" x="511" y="359" width="84.13720703125" height="44" opacity="0.2"/></g><g transform="translate(-150,-294) scale(1,1)"><rect fill="#ffffff" stroke="none" x="504" y="352" width="84.13720703125" height="44"/></g><g transform="translate(-150,-294) scale(1,1)"><path fill="none" stroke="#000000" d="M 504 352 L 588.13720703125 352 L 588.13720703125 396 L 504 396 L 504 352 Z Z" stroke-miterlimit="10"/></g><g transform="translate(-150,-294) scale(1,1)"><path fill="none" stroke="#000000" d="M 504 377 L 588.13720703125 377" stroke-miterlimit="10"/></g><g transform="translate(-150,-294) scale(1,1)"><path fill="none" stroke="#000000" d="M 504 387 L 588.13720703125 387" stroke-miterlimit="10"/></g><g transform="translate(-150,-294) scale(1,1)"><g><path fill="none" stroke="none"/><text fill="#000000" stroke="none" font-family="Arial" font-size="13px" font-style="normal" font-weight="bold" text-decoration="none" x="511.391357421875" y="371.5">FileExplorer</text></g></g><g transform="translate(-150,-294) scale(1,1)"><path fill="none" stroke="#000000" d="M 855 330 L 589 368" stroke-miterlimit="10"/></g><g transform="translate(-150,-294) scale(1,1)"><path fill="none" stroke="#000000" d="M 598.4652191193873 362.39557076751026 L 589 368 L 599.6558505397089 370.7299907097617" stroke-miterlimit="10"/></g><g transform="translate(-150,-294) scale(1,1)"><rect fill="#C0C0C0" stroke="none" x="895" y="383" width="132.55078125" height="44" opacity="0.2"/></g><g transform="translate(-150,-294) scale(1,1)"><rect fill="#ffffff" stroke="none" x="888" y="376" width="132.55078125" height="44"/></g><g transform="translate(-150,-294) scale(1,1)"><path fill="none" stroke="#000000" d="M 888 376 L 1020.55078125 376 L 1020.55078125 420 L 888 420 L 888 376 Z Z" stroke-miterlimit="10"/></g><g transform="translate(-150,-294) scale(1,1)"><path fill="none" stroke="#000000" d="M 888 401 L 1020.55078125 401" stroke-miterlimit="10"/></g><g transform="translate(-150,-294) scale(1,1)"><path fill="none" stroke="#000000" d="M 888 411 L 1020.55078125 411" stroke-miterlimit="10"/></g><g transform="translate(-150,-294) scale(1,1)"><g><path fill="none" stroke="none"/><text fill="#000000" stroke="none" font-family="Arial" font-size="13px" font-style="normal" font-weight="bold" text-decoration="none" x="897.568603515625" y="395.5">FilesystemInitializer</text></g></g><g transform="translate(-150,-294) scale(1,1)"><path fill="none" stroke="#000000" d="M 574 397 L 655 463" stroke-miterlimit="10"/></g><g transform="translate(-150,-294) scale(1,1)"><path fill="none" stroke="#000000" d="M 644.4625004000204 459.8438786176021 L 655 463 L 649.7805774078453 453.3171477443625" stroke-miterlimit="10"/></g><g transform="translate(-150,-294) scale(1,1)"><path fill="none" stroke="#000000" d="M 904 349 L 931 375" stroke-miterlimit="10"/></g><g transform="translate(-150,-294) scale(1,1)"><path fill="none" stroke="#000000" d="M 920.759722878895 370.9829457953653 L 931 375 L 926.5995168749283 364.91854433794606" stroke-miterlimit="10"/></g><g transform="translate(-150,-294) scale(1,1)"><path fill="none" stroke="#000000" d="M 943 421 L 923 463" stroke-miterlimit="10"/></g><g transform="translate(-150,-294) scale(1,1)"><path fill="none" stroke="#000000" d="M 923.5686678027065 452.0147090648374 L 923 463 L 931.1698825730967 455.6343351459757" stroke-miterlimit="10"/></g><g transform="translate(-150,-294) scale(1,1)"><rect fill="#C0C0C0" stroke="none" x="167" y="487" width="323.65966796875" height="280" opacity="0.2"/></g><g transform="translate(-150,-294) scale(1,1)"><rect fill="#ffffff" stroke="none" x="160" y="480" width="323.65966796875" height="280"/></g><g transform="translate(-150,-294) scale(1,1)"><path fill="none" stroke="#000000" d="M 160 480 L 483.65966796875 480 L 483.65966796875 760 L 160 760 L 160 480 Z Z" stroke-miterlimit="10"/></g><g transform="translate(-150,-294) scale(1,1)"><path fill="none" stroke="#000000" d="M 160 505 L 483.65966796875 505" stroke-miterlimit="10"/></g><g transform="translate(-150,-294) scale(1,1)"><path fill="none" stroke="#000000" d="M 160 558 L 483.65966796875 558" stroke-miterlimit="10"/></g><g transform="translate(-150,-294) scale(1,1)"><g><path fill="none" stroke="none"/><text fill="#000000" stroke="none" font-family="Arial" font-size="13px" font-style="normal" font-weight="bold" text-decoration="none" x="285.7021484375" y="499.5">FileManager</text></g></g><g transform="translate(-150,-294) scale(1,1)"><g><path fill="none" stroke="none"/><text fill="#000000" stroke="none" font-family="Arial" font-size="13px" font-style="normal" font-weight="normal" text-decoration="none" x="165" y="522.5">+CurrentPath: string</text></g></g><g transform="translate(-150,-294) scale(1,1)"><g><path fill="none" stroke="none"/><text fill="#000000" stroke="none" font-family="Arial" font-size="13px" font-style="normal" font-weight="normal" text-decoration="none" x="165" y="537.5">+FileSystem: FileSystem</text></g></g><g transform="translate(-150,-294) scale(1,1)"><g><path fill="none" stroke="none"/><text fill="#000000" stroke="none" font-family="Arial" font-size="13px" font-style="normal" font-weight="normal" text-decoration="none" x="165" y="552.5">+Attribute3</text></g></g><g transform="translate(-150,-294) scale(1,1)"><g><path fill="none" stroke="none"/><text fill="#000000" stroke="none" font-family="Arial" font-size="13px" font-style="normal" font-weight="normal" text-decoration="none" x="165" y="575.5">+FileManager(Filesystem: FileSystem)</text><path fill="none" stroke="#000000" d="M 165 575.5 L 387.13623046875 575.5" stroke-miterlimit="10"/></g></g><g transform="translate(-150,-294) scale(1,1)"><g><path fill="none" stroke="none"/><text fill="#000000" stroke="none" font-family="Arial" font-size="13px" font-style="normal" font-weight="normal" text-decoration="none" x="165" y="590.5">+startConsole(): void</text></g></g><g transform="translate(-150,-294) scale(1,1)"><g><path fill="none" stroke="none"/><text fill="#000000" stroke="none" font-family="Arial" font-size="13px" font-style="normal" font-weight="normal" text-decoration="none" x="165" y="605.5">+CommandLS(args: string[*]): bolean</text></g></g><g transform="translate(-150,-294) scale(1,1)"><g><path fill="none" stroke="none"/><text fill="#000000" stroke="none" font-family="Arial" font-size="13px" font-style="normal" font-weight="normal" text-decoration="none" x="165" y="620.5">+CommandExit(args: string[*]): boolean</text></g></g><g transform="translate(-150,-294) scale(1,1)"><g><path fill="none" stroke="none"/><text fill="#000000" stroke="none" font-family="Arial" font-size="13px" font-style="normal" font-weight="normal" text-decoration="none" x="165" y="635.5">+CommandHelp(args: string[*]): bolean</text></g></g><g transform="translate(-150,-294) scale(1,1)"><g><path fill="none" stroke="none"/><text fill="#000000" stroke="none" font-family="Arial" font-size="13px" font-style="normal" font-weight="normal" text-decoration="none" x="165" y="650.5">+CommandCD(args: string[*]): bolean</text></g></g><g transform="translate(-150,-294) scale(1,1)"><g><path fill="none" stroke="none"/><text fill="#000000" stroke="none" font-family="Arial" font-size="13px" font-style="normal" font-weight="normal" text-decoration="none" x="165" y="665.5">+CommandCat(args: string[*]): bolean</text></g></g><g transform="translate(-150,-294) scale(1,1)"><g><path fill="none" stroke="none"/><text fill="#000000" stroke="none" font-family="Arial" font-size="13px" font-style="normal" font-weight="normal" text-decoration="none" x="165" y="680.5">+CommandDel(args: string[*]): bolean</text></g></g><g transform="translate(-150,-294) scale(1,1)"><g><path fill="none" stroke="none"/><text fill="#000000" stroke="none" font-family="Arial" font-size="13px" font-style="normal" font-weight="normal" text-decoration="none" x="165" y="695.5">+CommandMkdir(args: string[*]): bolean</text></g></g><g transform="translate(-150,-294) scale(1,1)"><g><path fill="none" stroke="none"/><text fill="#000000" stroke="none" font-family="Arial" font-size="13px" font-style="normal" font-weight="normal" text-decoration="none" x="165" y="710.5">+parseDirectory(table: DirectoryTable): string</text></g></g><g transform="translate(-150,-294) scale(1,1)"><g><path fill="none" stroke="none"/><text fill="#000000" stroke="none" font-family="Arial" font-size="13px" font-style="normal" font-weight="normal" text-decoration="none" x="165" y="725.5">+CommandLineToArgs(commandLine: string): string[*]</text><path fill="none" stroke="#000000" d="M 165 725.5 L 479.65966796875 725.5" stroke-miterlimit="10"/></g></g><g transform="translate(-150,-294) scale(1,1)"><g><path fill="none" stroke="none"/><text fill="#000000" stroke="none" font-family="Arial" font-size="13px" font-style="normal" font-weight="normal" text-decoration="none" x="165" y="740.5">+ConvertToAbsolutePath(path: string): string</text></g></g><g transform="translate(-150,-294) scale(1,1)"><g><path fill="none" stroke="none"/><text fill="#000000" stroke="none" font-family="Arial" font-size="13px" font-style="normal" font-weight="normal" text-decoration="none" x="165" y="755.5">+ParseDirectory(table: DirectoryTable): string</text><path fill="none" stroke="#000000" d="M 165 755.5 L 426.16796875 755.5" stroke-miterlimit="10"/></g></g><g transform="translate(-150,-294) scale(1,1)"><path fill="none" stroke="#000000" d="M 485 620 L 623 619" stroke-miterlimit="10"/></g><g transform="translate(-150,-294) scale(1,1)"><path fill="none" stroke="#000000" d="M 612.8680949037903 623.2830478775517 L 623 619 L 612.8070890017682 614.864233398495" stroke-miterlimit="10"/></g></g></svg>