<svg version="1.1" xmlns="http://www.w3.org/2000/svg" xmlns:xlink="http://www.w3.org/1999/xlink" width="1143.5205078125" height="693"><defs/><g><g transform="translate(-254,-294) scale(1,1)"><rect fill="#C0C0C0" stroke="none" x="863" y="311" width="50.919921875" height="44" opacity="0.2"/></g><g transform="translate(-254,-294) scale(1,1)"><rect fill="#ffffff" stroke="none" x="856" y="304" width="50.919921875" height="44"/></g><g transform="translate(-254,-294) scale(1,1)"><path fill="none" stroke="#000000" d="M 856 304 L 906.919921875 304 L 906.919921875 348 L 856 348 L 856 304 Z Z" stroke-miterlimit="10"/></g><g transform="translate(-254,-294) scale(1,1)"><path fill="none" stroke="#000000" d="M 856 329 L 906.919921875 329" stroke-miterlimit="10"/></g><g transform="translate(-254,-294) scale(1,1)"><path fill="none" stroke="#000000" d="M 856 339 L 906.919921875 339" stroke-miterlimit="10"/></g><g transform="translate(-254,-294) scale(1,1)"><g><path fill="none" stroke="none"/><text fill="#000000" stroke="none" font-family="Arial" font-size="13px" font-style="normal" font-weight="bold" text-decoration="none" x="867.371337890625" y="323.5">Main</text></g></g><g transform="translate(-254,-294) scale(1,1)"><rect fill="#C0C0C0" stroke="none" x="1047" y="559" width="347.5205078125" height="85" opacity="0.2"/></g><g transform="translate(-254,-294) scale(1,1)"><rect fill="#ffffff" stroke="none" x="1040" y="552" width="347.5205078125" height="85"/></g><g transform="translate(-254,-294) scale(1,1)"><path fill="none" stroke="#000000" d="M 1040 552 L 1387.5205078125 552 L 1387.5205078125 637 L 1040 637 L 1040 552 Z Z" stroke-miterlimit="10"/></g><g transform="translate(-254,-294) scale(1,1)"><path fill="none" stroke="#000000" d="M 1040 577 L 1387.5205078125 577" stroke-miterlimit="10"/></g><g transform="translate(-254,-294) scale(1,1)"><path fill="none" stroke="#000000" d="M 1040 600 L 1387.5205078125 600" stroke-miterlimit="10"/></g><g transform="translate(-254,-294) scale(1,1)"><g><path fill="none" stroke="none"/><text fill="#000000" stroke="none" font-family="Arial" font-size="13px" font-style="normal" font-weight="bold" text-decoration="none" x="1182.697998046875" y="571.5">VirtualDisk</text></g></g><g transform="translate(-254,-294) scale(1,1)"><g><path fill="none" stroke="none"/><text fill="#000000" stroke="none" font-family="Arial" font-size="13px" font-style="normal" font-weight="normal" text-decoration="none" x="1045" y="594.5">-driveData: byte[*]</text></g></g><g transform="translate(-254,-294) scale(1,1)"><g><path fill="none" stroke="none"/><text fill="#000000" stroke="none" font-family="Arial" font-size="13px" font-style="normal" font-weight="normal" text-decoration="none" x="1045" y="617.5">+writeBlock(block: unsigned short, blockData: byte[*]): void</text></g></g><g transform="translate(-254,-294) scale(1,1)"><g><path fill="none" stroke="none"/><text fill="#000000" stroke="none" font-family="Arial" font-size="13px" font-style="normal" font-weight="normal" text-decoration="none" x="1045" y="632.5">+readBlock(block: unsigned short): byte[*]</text></g></g><g transform="translate(-254,-294) scale(1,1)"><rect fill="#C0C0C0" stroke="none" x="647" y="527" width="269.47607421875" height="117" opacity="0.2"/></g><g transform="translate(-254,-294) scale(1,1)"><rect fill="#ffffff" stroke="none" x="640" y="520" width="269.47607421875" height="117"/></g><g transform="translate(-254,-294) scale(1,1)"><path fill="none" stroke="#000000" d="M 640 520 L 909.47607421875 520 L 909.47607421875 637 L 640 637 L 640 520 Z Z" stroke-miterlimit="10"/></g><g transform="translate(-254,-294) scale(1,1)"><path fill="none" stroke="#000000" d="M 640 545 L 909.47607421875 545" stroke-miterlimit="10"/></g><g transform="translate(-254,-294) scale(1,1)"><path fill="none" stroke="#000000" d="M 640 555 L 909.47607421875 555" stroke-miterlimit="10"/></g><g transform="translate(-254,-294) scale(1,1)"><g><path fill="none" stroke="none"/><text fill="#000000" stroke="none" font-family="Arial" font-size="13px" font-style="normal" font-weight="bold" text-decoration="none" x="742.593505859375" y="539.5">FileSystem</text></g></g><g transform="translate(-254,-294) scale(1,1)"><g><path fill="none" stroke="none"/><text fill="#000000" stroke="none" font-family="Arial" font-size="13px" font-style="normal" font-weight="normal" text-decoration="none" x="645" y="572.5">+getRoot()</text></g></g><g transform="translate(-254,-294) scale(1,1)"><g><path fill="none" stroke="none"/><text fill="#000000" stroke="none" font-family="Arial" font-size="13px" font-style="normal" font-weight="normal" text-decoration="none" x="645" y="587.5">+getDirectoryContents()</text></g></g><g transform="translate(-254,-294) scale(1,1)"><g><path fill="none" stroke="none"/><text fill="#000000" stroke="none" font-family="Arial" font-size="13px" font-style="normal" font-weight="normal" text-decoration="none" x="645" y="602.5">+getFile()</text></g></g><g transform="translate(-254,-294) scale(1,1)"><g><path fill="none" stroke="none"/><text fill="#000000" stroke="none" font-family="Arial" font-size="13px" font-style="normal" font-weight="normal" text-decoration="none" x="645" y="617.5">+createDirectory(name: string, path: location)</text></g></g><g transform="translate(-254,-294) scale(1,1)"><g><path fill="none" stroke="none"/><text fill="#000000" stroke="none" font-family="Arial" font-size="13px" font-style="normal" font-weight="normal" text-decoration="none" x="645" y="632.5">+createFile(file: File)</text></g></g><g transform="translate(-254,-294) scale(1,1)"><rect fill="#C0C0C0" stroke="none" x="495" y="687" width="285.3515625" height="100" opacity="0.2"/></g><g transform="translate(-254,-294) scale(1,1)"><rect fill="#ffffff" stroke="none" x="488" y="680" width="285.3515625" height="100"/></g><g transform="translate(-254,-294) scale(1,1)"><path fill="none" stroke="#000000" d="M 488 680 L 773.3515625 680 L 773.3515625 780 L 488 780 L 488 680 Z Z" stroke-miterlimit="10"/></g><g transform="translate(-254,-294) scale(1,1)"><path fill="none" stroke="#000000" d="M 488 705 L 773.3515625 705" stroke-miterlimit="10"/></g><g transform="translate(-254,-294) scale(1,1)"><path fill="none" stroke="#000000" d="M 488 743 L 773.3515625 743" stroke-miterlimit="10"/></g><g transform="translate(-254,-294) scale(1,1)"><g><path fill="none" stroke="none"/><text fill="#000000" stroke="none" font-family="Arial" font-size="13px" font-style="normal" font-weight="bold" text-decoration="none" x="588.4130859375" y="699.5">DirectoryTable</text></g></g><g transform="translate(-254,-294) scale(1,1)"><g><path fill="none" stroke="none"/><text fill="#000000" stroke="none" font-family="Arial" font-size="13px" font-style="normal" font-weight="normal" text-decoration="none" x="493" y="722.5">+blockData</text></g></g><g transform="translate(-254,-294) scale(1,1)"><g><path fill="none" stroke="none"/><text fill="#000000" stroke="none" font-family="Arial" font-size="13px" font-style="normal" font-weight="normal" text-decoration="none" x="493" y="737.5">+rows: ArrayList&lt;DirectoryRow&gt;</text></g></g><g transform="translate(-254,-294) scale(1,1)"><g><path fill="none" stroke="none"/><text fill="#000000" stroke="none" font-family="Arial" font-size="13px" font-style="normal" font-weight="normal" text-decoration="none" x="493" y="760.5">+createFromBytes(data: byte[*]): DirectoryTable</text></g></g><g transform="translate(-254,-294) scale(1,1)"><g><path fill="none" stroke="none"/><text fill="#000000" stroke="none" font-family="Arial" font-size="13px" font-style="normal" font-weight="normal" text-decoration="none" x="493" y="775.5">+toBytes(): byte[*]</text></g></g><g transform="translate(-254,-294) scale(1,1)"><rect fill="#C0C0C0" stroke="none" x="927" y="711" width="50.919921875" height="44" opacity="0.2"/></g><g transform="translate(-254,-294) scale(1,1)"><rect fill="#ffffff" stroke="none" x="920" y="704" width="50.919921875" height="44"/></g><g transform="translate(-254,-294) scale(1,1)"><path fill="none" stroke="#000000" d="M 920 704 L 970.919921875 704 L 970.919921875 748 L 920 748 L 920 704 Z Z" stroke-miterlimit="10"/></g><g transform="translate(-254,-294) scale(1,1)"><path fill="none" stroke="#000000" d="M 920 729 L 970.919921875 729" stroke-miterlimit="10"/></g><g transform="translate(-254,-294) scale(1,1)"><path fill="none" stroke="#000000" d="M 920 739 L 970.919921875 739" stroke-miterlimit="10"/></g><g transform="translate(-254,-294) scale(1,1)"><g><path fill="none" stroke="none"/><text fill="#000000" stroke="none" font-family="Arial" font-size="13px" font-style="normal" font-weight="bold" text-decoration="none" x="934.986328125" y="723.5">File</text></g></g><g transform="translate(-254,-294) scale(1,1)"><rect fill="#C0C0C0" stroke="none" x="271" y="839" width="747.07373046875" height="145" opacity="0.2"/></g><g transform="translate(-254,-294) scale(1,1)"><rect fill="#ffffff" stroke="none" x="264" y="832" width="747.07373046875" height="145"/></g><g transform="translate(-254,-294) scale(1,1)"><path fill="none" stroke="#000000" d="M 264 832 L 1011.07373046875 832 L 1011.07373046875 977 L 264 977 L 264 832 Z Z" stroke-miterlimit="10"/></g><g transform="translate(-254,-294) scale(1,1)"><path fill="none" stroke="#000000" d="M 264 857 L 1011.07373046875 857" stroke-miterlimit="10"/></g><g transform="translate(-254,-294) scale(1,1)"><path fill="none" stroke="#000000" d="M 264 925 L 1011.07373046875 925" stroke-miterlimit="10"/></g><g transform="translate(-254,-294) scale(1,1)"><g><path fill="none" stroke="none"/><text fill="#000000" stroke="none" font-family="Arial" font-size="13px" font-style="normal" font-weight="bold" text-decoration="none" x="598.530517578125" y="851.5">DirectoryRow</text></g></g><g transform="translate(-254,-294) scale(1,1)"><g><path fill="none" stroke="none"/><text fill="#000000" stroke="none" font-family="Arial" font-size="13px" font-style="normal" font-weight="normal" text-decoration="none" x="269" y="874.5">+itemName: String 58 bytes</text></g></g><g transform="translate(-254,-294) scale(1,1)"><g><path fill="none" stroke="none"/><text fill="#000000" stroke="none" font-family="Arial" font-size="13px" font-style="normal" font-weight="normal" text-decoration="none" x="269" y="889.5">+blockStart: unsigned short</text></g></g><g transform="translate(-254,-294) scale(1,1)"><g><path fill="none" stroke="none"/><text fill="#000000" stroke="none" font-family="Arial" font-size="13px" font-style="normal" font-weight="normal" text-decoration="none" x="269" y="904.5">+size: unsigned short</text></g></g><g transform="translate(-254,-294) scale(1,1)"><g><path fill="none" stroke="none"/><text fill="#000000" stroke="none" font-family="Arial" font-size="13px" font-style="normal" font-weight="normal" text-decoration="none" x="269" y="919.5">+next: unsigned short</text></g></g><g transform="translate(-254,-294) scale(1,1)"><g><path fill="none" stroke="none"/><text fill="#000000" stroke="none" font-family="Arial" font-size="13px" font-style="normal" font-weight="normal" text-decoration="none" x="269" y="942.5">+createFromBytes(row: byte[*]): DirectoryRow</text></g></g><g transform="translate(-254,-294) scale(1,1)"><g><path fill="none" stroke="none"/><text fill="#000000" stroke="none" font-family="Arial" font-size="13px" font-style="normal" font-weight="normal" text-decoration="none" x="269" y="957.5">+createFromInformation(itemName: String, blockStart: unsigned short, size: unsigned short, next: unsigned short): DirectoryRow</text></g></g><g transform="translate(-254,-294) scale(1,1)"><g><path fill="none" stroke="none"/><text fill="#000000" stroke="none" font-family="Arial" font-size="13px" font-style="normal" font-weight="normal" text-decoration="none" x="269" y="972.5">+toBytes(): byte[*]</text></g></g><g transform="translate(-254,-294) scale(1,1)"><path fill="none" stroke="#000000" d="M 632 781 L 634 831" stroke-miterlimit="10"/></g><g transform="translate(-254,-294) scale(1,1)"><path fill="none" stroke="#000000" d="M 629.3876636439958 821.0136917061868 L 634 831 L 637.7999719991309 820.6771993719814" stroke-miterlimit="10"/></g><g transform="translate(-254,-294) scale(1,1)"><path fill="none" stroke="#000000" d="M 717 638 L 678 679" stroke-miterlimit="10"/></g><g transform="translate(-254,-294) scale(1,1)"><path fill="none" stroke="#000000" d="M 681.9542153852841 668.73529441792 L 678 679 L 688.0542954371787 674.5378095892345" stroke-miterlimit="10"/></g><g transform="translate(-254,-294) scale(1,1)"><path fill="none" stroke="#000000" d="M 843 638 L 919 703" stroke-miterlimit="10"/></g><g transform="translate(-254,-294) scale(1,1)"><path fill="none" stroke="#000000" d="M 908.5407035185459 699.5936651496013 L 919 703 L 914.0128030032322 693.1955180598142" stroke-miterlimit="10"/></g><g transform="translate(-254,-294) scale(1,1)"><path fill="none" stroke="#000000" d="M 908 348 L 1160 551" stroke-miterlimit="10"/></g><g transform="translate(-254,-294) scale(1,1)"><path fill="none" stroke="#000000" d="M 1149.4450223993347 547.9028322858696 L 1160 551 L 1154.726532056431 541.3464754701638" stroke-miterlimit="10"/></g><g transform="translate(-254,-294) scale(1,1)"><path fill="none" stroke="#000000" d="M 871 349 L 799 519" stroke-miterlimit="10"/></g><g transform="translate(-254,-294) scale(1,1)"><path fill="none" stroke="#000000" d="M 799.0871774442606 508.00034545573305 L 799 519 L 806.8395740809638 511.28371344304264" stroke-miterlimit="10"/></g><g transform="translate(-254,-294) scale(1,1)"><path fill="none" stroke="#000000" d="M 910 583 L 1039 588" stroke-miterlimit="10"/></g><g transform="translate(-254,-294) scale(1,1)"><path fill="none" stroke="#000000" d="M 1028.681913131616 591.8127527295227 L 1039 588 L 1029.0079874964608 583.4000341165269" stroke-miterlimit="10"/></g><g transform="translate(-254,-294) scale(1,1)"><rect fill="#C0C0C0" stroke="none" x="567" y="399" width="84.13720703125" height="44" opacity="0.2"/></g><g transform="translate(-254,-294) scale(1,1)"><rect fill="#ffffff" stroke="none" x="560" y="392" width="84.13720703125" height="44"/></g><g transform="translate(-254,-294) scale(1,1)"><path fill="none" stroke="#000000" d="M 560 392 L 644.13720703125 392 L 644.13720703125 436 L 560 436 L 560 392 Z Z" stroke-miterlimit="10"/></g><g transform="translate(-254,-294) scale(1,1)"><path fill="none" stroke="#000000" d="M 560 417 L 644.13720703125 417" stroke-miterlimit="10"/></g><g transform="translate(-254,-294) scale(1,1)"><path fill="none" stroke="#000000" d="M 560 427 L 644.13720703125 427" stroke-miterlimit="10"/></g><g transform="translate(-254,-294) scale(1,1)"><g><path fill="none" stroke="none"/><text fill="#000000" stroke="none" font-family="Arial" font-size="13px" font-style="normal" font-weight="bold" text-decoration="none" x="567.391357421875" y="411.5">FileExplorer</text></g></g><g transform="translate(-254,-294) scale(1,1)"><path fill="none" stroke="#000000" d="M 855 334 L 645 400" stroke-miterlimit="10"/></g><g transform="translate(-254,-294) scale(1,1)"><path fill="none" stroke="#000000" d="M 653.4330025783793 392.93710629323584 L 645 400 L 655.9572533437884 400.9688132740829" stroke-miterlimit="10"/></g><g transform="translate(-254,-294) scale(1,1)"><rect fill="#C0C0C0" stroke="none" x="863" y="439" width="132.55078125" height="44" opacity="0.2"/></g><g transform="translate(-254,-294) scale(1,1)"><rect fill="#ffffff" stroke="none" x="856" y="432" width="132.55078125" height="44"/></g><g transform="translate(-254,-294) scale(1,1)"><path fill="none" stroke="#000000" d="M 856 432 L 988.55078125 432 L 988.55078125 476 L 856 476 L 856 432 Z Z" stroke-miterlimit="10"/></g><g transform="translate(-254,-294) scale(1,1)"><path fill="none" stroke="#000000" d="M 856 457 L 988.55078125 457" stroke-miterlimit="10"/></g><g transform="translate(-254,-294) scale(1,1)"><path fill="none" stroke="#000000" d="M 856 467 L 988.55078125 467" stroke-miterlimit="10"/></g><g transform="translate(-254,-294) scale(1,1)"><g><path fill="none" stroke="none"/><text fill="#000000" stroke="none" font-family="Arial" font-size="13px" font-style="normal" font-weight="bold" text-decoration="none" x="865.568603515625" y="451.5">FilesystemInitializer</text></g></g><g transform="translate(-254,-294) scale(1,1)"><path fill="none" stroke="#000000" d="M 626 437 L 712 519" stroke-miterlimit="10"/></g><g transform="translate(-254,-294) scale(1,1)"><path fill="none" stroke="#000000" d="M 701.7400062785854 515.0335748038652 L 712 519 L 707.5497750179125 508.9404027114002" stroke-miterlimit="10"/></g><g transform="translate(-254,-294) scale(1,1)"><path fill="none" stroke="#000000" d="M 888 349 L 915 431" stroke-miterlimit="10"/></g><g transform="translate(-254,-294) scale(1,1)"><path fill="none" stroke="#000000" d="M 907.8232685287664 422.6636623514996 L 915 431 L 915.8199653914512 420.03060362842047" stroke-miterlimit="10"/></g><g transform="translate(-254,-294) scale(1,1)"><path fill="none" stroke="#000000" d="M 895 477 L 844 519" stroke-miterlimit="10"/></g><g transform="translate(-254,-294) scale(1,1)"><path fill="none" stroke="#000000" d="M 849.1688550287984 509.2900598513036 L 844 519 L 854.5208969658922 515.7889679177748" stroke-miterlimit="10"/></g></g></svg>